<svg width="1280" height="231" viewBox="0 0 1280 231" fill="none" xmlns="http://www.w3.org/2000/svg">
<g clip-path="url(#clip0_3295_3316)">
<rect width="1280" height="231" fill="url(#paint0_linear_3295_3316)"/>
<path opacity="0.1" fill-rule="evenodd" clip-rule="evenodd" d="M97.1888 -35.5474C80.9095 -71.8345 38.296 -88.054 2.00884 -71.7747C-34.2783 -55.4954 -50.4978 -12.8819 -34.2185 23.4052C-17.9392 59.6924 24.6743 75.9119 60.9615 59.6326C97.2486 43.3533 113.468 0.73974 97.1888 -35.5474Z" fill="#6E8DFF"/>
<path opacity="0.2" fill-rule="evenodd" clip-rule="evenodd" d="M146.114 -59.6295C117.956 -122.396 44.2457 -150.452 -18.5213 -122.293C-81.2882 -94.1342 -109.344 -20.4243 -81.1848 42.3426C-53.026 105.11 20.6839 133.165 83.4508 105.006C146.218 76.8473 174.273 3.13744 146.114 -59.6295Z" stroke="#6E8DFF" stroke-width="2.49125"/>
<path fill-rule="evenodd" clip-rule="evenodd" d="M166.171 11.441C163.355 5.16431 155.984 2.35877 149.708 5.17465C143.431 7.99054 140.626 15.3615 143.441 21.6382C146.257 27.9149 153.628 30.7205 159.905 27.9046C166.182 25.0887 168.987 17.7177 166.171 11.441Z" fill="#EBEDFC"/>
<path opacity="0.1" fill-rule="evenodd" clip-rule="evenodd" d="M1216.54 8.49707C1225.08 26.8789 1246.91 34.8518 1265.3 26.305C1283.68 17.7582 1291.65 -4.07184 1283.1 -22.4537C1274.56 -40.8356 1252.73 -48.8085 1234.35 -40.2617C1215.96 -31.7148 1207.99 -9.88482 1216.54 8.49707Z" fill="#6E8DFF"/>
<path opacity="0.2" fill-rule="evenodd" clip-rule="evenodd" d="M1191.77 21.1077C1206.55 52.9034 1244.31 66.6943 1276.11 51.9106C1307.9 37.1269 1321.69 -0.633132 1306.91 -32.4288C1292.13 -64.2245 1254.37 -78.0154 1222.57 -63.2318C1190.78 -48.4481 1176.98 -10.688 1191.77 21.1077Z" stroke="#6E8DFF" stroke-width="1.2698"/>
<path opacity="0.1" fill-rule="evenodd" clip-rule="evenodd" d="M1132.73 97.4118C967.745 105.371 840.452 245.569 848.412 410.552C856.371 575.536 996.569 702.828 1161.55 694.869C1326.54 686.91 1453.83 546.712 1445.87 381.729C1437.91 216.745 1297.71 89.4524 1132.73 97.4118Z" stroke="#6E8DFF" stroke-width="2"/>
<path opacity="0.1" fill-rule="evenodd" clip-rule="evenodd" d="M932.729 177.412C767.745 185.371 640.452 325.569 648.412 490.552C656.371 655.536 796.569 782.828 961.552 774.869C1126.54 766.91 1253.83 626.712 1245.87 461.729C1237.91 296.745 1097.71 169.452 932.729 177.412Z" stroke="#6E8DFF" stroke-width="2"/>
</g>
<defs>
<linearGradient id="paint0_linear_3295_3316" x1="440.889" y1="-13.7586" x2="432.734" y2="200.281" gradientUnits="userSpaceOnUse">
<stop stop-color="white"/>
<stop offset="1" stop-color="#DED6ED" stop-opacity="0.4"/>
</linearGradient>
<clipPath id="clip0_3295_3316">
<rect width="1280" height="231" fill="white"/>
</clipPath>
</defs>
</svg>
